<svg xmlns="http://www.w3.org/2000/svg" viewBox="0 0 48 48"><defs><style>.cls-2{fill:#42a5f5!important}</style></defs><g id="Protection"><path class="cls-2" d="M35 4a3 3 0 0 1-3-3 1 1 0 0 0-1-1H17a1 1 0 0 0-1 1 3 3 0 0 1-3 3 1 1 0 0 0-1 1v6.29a17.78 17.78 0 0 0 11.66 16.65 1 1 0 0 0 .68 0A17.78 17.78 0 0 0 36 11.29V5a1 1 0 0 0-1-1zm-1 7.29a15.67 15.67 0 0 1-9.61 14.48 1 1 0 0 1-.78 0A15.67 15.67 0 0 1 14 11.29V6.66a1 1 0 0 1 .67-1 5 5 0 0 0 3-3 1 1 0 0 1 .99-.66h10.68a1 1 0 0 1 .95.67 5 5 0 0 0 3 3 1 1 0 0 1 .67 1z"></path><path class="cls-2" d="M28.68 4h-9.36A7 7 0 0 1 16 7.32v4a13.69 13.69 0 0 0 8 12.47 13.69 13.69 0 0 0 8-12.47v-4A7 7 0 0 1 28.68 4z"></path><path d="M45 5h-7v2h7a1 1 0 0 1 1 1v23H2V8a1 1 0 0 1 1-1h7V5H3a3 3 0 0 0-3 3v30a3 3 0 0 0 3 3h14.85l-.72 5H15a1 1 0 0 0 0 2h18a1 1 0 0 0 0-2h-2.13l-.72-5H45a3 3 0 0 0 3-3V8a3 3 0 0 0-3-3zM19.15 46l.72-5h8.26l.72 5zM46 38a1 1 0 0 1-1 1H3a1 1 0 0 1-1-1v-5h44z" style="fill:#424242"></path><path class="cls-1" d="M23.62 36.92a.94.94 0 0 0 .76 0 1.15 1.15 0 0 0 .33-.21l.12-.15a.76.76 0 0 0 .09-.18.64.64 0 0 0 .08-.18 1.5 1.5 0 0 0 0-.2 1.05 1.05 0 0 0-.29-.71 1.15 1.15 0 0 0-.33-.21 1 1 0 0 0-.76 0 1.15 1.15 0 0 0-.33.21 1 1 0 0 0 0 1.42 1.15 1.15 0 0 0 .33.21z"></path></g></svg>