<svg xmlns="http://www.w3.org/2000/svg" viewBox="0 0 48 48"><defs><style>.cls-1{fill:#424242}.cls-2{fill:#42a5f5}</style></defs><g id="Globe"><path class="cls-1" d="M39.93 9.64a.43.43 0 0 0 0-.07 18 18 0 0 0-31.78 0 .43.43 0 0 0 0 .07A17.84 17.84 0 0 0 6 18a17.5 17.5 0 0 0 .65 4.77A3.92 3.92 0 0 1 8.53 22a16 16 0 0 1-.48-3h8c0 1 .08 2 .17 3h2c-.1-1-.16-2-.19-3h5v3h2v-3h5c0 1-.09 2-.19 3h2c.09-1 .15-2 .17-3h8a16 16 0 0 1-.48 3 3.92 3.92 0 0 1 1.88.74A17.5 17.5 0 0 0 42 18a17.84 17.84 0 0 0-2.07-8.36zM16 17H8a15.92 15.92 0 0 1 1.58-6h7a39.44 39.44 0 0 0-.58 6zm1-8h-6.22a16.07 16.07 0 0 1 9-6.41A18 18 0 0 0 17 9zm6 8h-5a35.82 35.82 0 0 1 .62-6H23zm0-8h-3.9c.95-3.55 2.41-6 3.9-6.73zm2-6.73C26.49 3 28 5.45 28.9 9H25zM25 17v-6h4.36a35.82 35.82 0 0 1 .64 6zm3.23-14.41a16.07 16.07 0 0 1 9 6.41H31a18 18 0 0 0-2.77-6.41zM32 17a39.44 39.44 0 0 0-.57-6h7A15.92 15.92 0 0 1 40 17z"></path><rect class="cls-2" y="38" width="4" height="4" rx="1"></rect><rect class="cls-2" x="44" y="38" width="4" height="4" rx="1"></rect><rect class="cls-2" x="6" y="44" width="4" height="4" rx="1"></rect><rect class="cls-2" x="38" y="44" width="4" height="4" rx="1"></rect><path class="cls-1" d="M13 34v6a1 1 0 0 1-1 1H6v-2h5v-5zM42 39v2h-6a1 1 0 0 1-1-1v-6h2v5zM36 45v2h-8a1 1 0 0 1-1-1V34h2v11zM21 34v12a1 1 0 0 1-1 1h-8v-2h7V34z"></path><path class="cls-2" d="M39 24H9a2 2 0 0 0-2 2v4a2 2 0 0 0 2 2h30a2 2 0 0 0 2-2v-4a2 2 0 0 0-2-2zm-25 5a1 1 0 0 1-1 1h-2a1 1 0 0 1-1-1v-2a1 1 0 0 1 1-1h2a1 1 0 0 1 1 1zm6 0a1 1 0 0 1-1 1h-2a1 1 0 0 1-1-1v-2a1 1 0 0 1 1-1h2a1 1 0 0 1 1 1zm10 0a1 1 0 0 1-2 0v-2a1 1 0 0 1 2 0zm4 0a1 1 0 0 1-2 0v-2a1 1 0 0 1 2 0zm4 0a1 1 0 0 1-2 0v-2a1 1 0 0 1 2 0z"></path></g></svg>