<svg xmlns="http://www.w3.org/2000/svg" viewBox="0 0 48 48"><defs><style>.cls-2{fill:#42a5f5}</style></defs><g id="Scaning"><path d="m46.83 41.17-6.36-6.36L37.64 32a1 1 0 0 0-1.42 0l-3.57-3.56a18.06 18.06 0 1 0-4.23 4.23L32 36.22a1 1 0 0 0 0 1.42l2.83 2.82 6.36 6.36a4 4 0 0 0 5.66-5.66zM2 18a16 16 0 1 1 16 16A16 16 0 0 1 2 18zm29.39 12 3.42 3.41-1.42 1.39L30 31.39A15.64 15.64 0 0 0 31.39 30zm5.54 4.12 1.41 1.41-2.82 2.83-1.42-1.43zm8.48 11.31a2 2 0 0 1-2.82 0l-5.66-5.65 2.83-2.83 5.65 5.66a2 2 0 0 1 0 2.82z" style="fill:#424242"></path><ellipse class="cls-2" cx="18" cy="14" rx="3.98" ry="1"></ellipse><path class="cls-2" d="M18 19c2.47 0 3.85-.75 4-1.05v-1.64a11 11 0 0 1-4 .69 11 11 0 0 1-4-.69V18c.18.27 1.56 1 4 1z"></path><path class="cls-2" d="M18 5a13 13 0 1 0 13 13A13 13 0 0 0 18 5zm6 17c0 2.06-3.11 3-6 3s-6-.94-6-3v-8c0-2.06 3.11-3 6-3s6 .94 6 3z"></path><path class="cls-2" d="M18 21a10.83 10.83 0 0 1-4-.69V22c.13.25 1.51 1 4 1s3.87-.75 4-1.05V20.3a10.83 10.83 0 0 1-4 .7z"></path></g></svg>